<?xml version="1.0" encoding="utf-8"?>
<!-- Generator: Adobe Illustrator 19.1.0, SVG Export Plug-In . SVG Version: 6.00 Build 0)  -->
<svg version="1.1" id="Layer_1" xmlns="http://www.w3.org/2000/svg" xmlns:xlink="http://www.w3.org/1999/xlink" x="0px" y="0px"
	 width="1000px" height="1000px" viewBox="0 0 1000 1000" style="enable-background:new 0 0 1000 1000;" xml:space="preserve">
<path d="M97.5,628.5c88.2,19.9,151.5,55.3,195.8,91.4c-54.9-350.4,45.2-441.7,45.2-441.7c-9.5,109.3-0.5,211.3,14.9,297.3
	c8.2-62.5,23.7-129.4,51.6-192.2c0,0,10.9,88,32.3,189.3c6.7-115.5,6.6-258.7-14.5-405.1c0,0,43,102.5,84.6,252.1
	c22.8-61.7,52.6-130.6,91.3-206.9c0,0-9.2,134.1-5.8,281.8c46.8-88.6,91.6-120.3,91.6-120.3c-16.6,43.9-27.9,94.7-35.3,146.2
	c26.1-41.7,59.8-81.2,103.3-113.4c0,0-43.7,127.6-51.7,257.6c92.7-128,204-172.8,204-172.8C754,635.3,752.4,833.5,752.4,833.5
	c-174,0-347.9,0-521.9,0C236.5,717.4,97.5,628.5,97.5,628.5z"/>
</svg>
